<?xml version="1.0" encoding="utf-8" ?>
<svg baseProfile="tiny" viewBox="0 0 1024 1024" height="100%" version="1.2" width="100%" xmlns="http://www.w3.org/2000/svg" xmlns:ev="http://www.w3.org/2001/xml-events" xmlns:xlink="http://www.w3.org/1999/xlink"><defs /><path d="M 966,1023 Z" fill="black" /><path d="M 944,1023 L 945,1023 Z" fill="black" /><path d="M 927,1023 Z" fill="black" /><path d="M 700,1023 L 701,1023 Z" fill="black" /><path d="M 505,1023 L 506,1023 Z" fill="black" /><path d="M 300,1023 Z" fill="black" /><path d="M 683,1022 L 684,1023 Z" fill="black" /><path d="M 486,1022 L 487,1023 L 487,1022 Z" fill="black" /><path d="M 52,1022 L 53,1023 L 54,1023 L 53,1022 Z" fill="black" /><path d="M 604,1021 Z" fill="black" /><path d="M 206,1021 L 207,1022 L 206,1023 L 207,1023 L 207,1021 Z" fill="black" /><path d="M 925,1020 L 925,1022 L 926,1021 L 926,1020 Z" fill="black" /><path d="M 0,954 L 0,956 L 1,955 L 2,956 L 3,955 L 3,954 L 2,955 L 1,955 Z" fill="black" /><path d="M 1023,951 L 1023,952 Z" fill="black" /><path d="M 1018,934 Z" fill="black" /><path d="M 0,880 Z" fill="black" /><path d="M 4,860 L 5,861 L 6,860 Z" fill="black" /><path d="M 1022,855 L 1023,855 Z" fill="black" /><path d="M 1020,850 L 1020,851 L 1019,852 L 1020,853 L 1021,853 L 1023,851 L 1023,850 L 1022,851 L 1021,850 Z" fill="black" /><path d="M 0,850 L 0,851 Z" fill="black" /><path d="M 0,829 L 0,832 L 1,831 L 1,830 L 2,829 L 3,829 L 2,829 L 1,830 Z" fill="black" /><path d="M 1023,796 Z" fill="black" /><path d="M 0,781 L 0,782 Z" fill="black" /><path d="M 1023,777 Z" fill="black" /><path d="M 1023,771 Z" fill="black" /><path d="M 0,767 L 0,768 L 1,769 L 0,770 L 1,769 L 2,769 L 2,768 L 1,767 Z" fill="black" /><path d="M 1023,751 Z" fill="black" /><path d="M 1020,721 Z" fill="black" /><path d="M 0,718 L 0,720 L 1,719 L 1,718 Z" fill="black" /><path d="M 1023,656 Z" fill="black" /><path d="M 0,656 Z" fill="black" /><path d="M 1023,654 Z" fill="black" /><path d="M 1021,651 L 1022,652 Z" fill="black" /><path d="M 1019,650 Z" fill="black" /><path d="M 1023,619 L 1023,621 Z" fill="black" /><path d="M 1022,616 L 1023,617 L 1023,616 Z" fill="black" /><path d="M 3,612 Z" fill="black" /><path d="M 0,612 L 0,613 L 1,613 L 1,612 Z" fill="black" /><path d="M 3,607 Z" fill="black" /><path d="M 1023,486 L 1022,487 L 1023,487 Z" fill="black" /><path d="M 0,472 Z" fill="black" /><path d="M 1023,396 Z" fill="black" /><path d="M 0,382 L 0,384 L 0,383 L 1,382 Z" fill="black" /><path d="M 1023,373 Z" fill="black" /><path d="M 1023,371 Z" fill="black" /><path d="M 0,360 Z" fill="black" /><path d="M 1023,325 L 1023,326 Z" fill="black" /><path d="M 1023,230 Z" fill="black" /><path d="M 1021,229 Z" fill="black" /><path d="M 1023,226 L 1022,227 Z" fill="black" /><path d="M 1023,222 L 1022,223 L 1023,223 Z" fill="black" /><path d="M 1022,152 L 1023,153 L 1023,154 L 1023,152 Z" fill="black" /><path d="M 1023,144 Z" fill="black" /><path d="M 0,115 Z" fill="black" /><path d="M 4,114 L 5,115 L 6,114 L 5,115 Z" fill="black" /><path d="M 0,99 L 0,100 L 1,100 Z" fill="black" /><path d="M 1023,94 L 1023,96 Z" fill="black" /><path d="M 1022,77 L 1023,78 L 1022,79 L 1023,79 L 1023,77 Z" fill="black" /><path d="M 1023,52 Z" fill="black" /><path d="M 1022,49 L 1023,50 L 1023,49 Z" fill="black" /><path d="M 541,8 Z" fill="black" /><path d="M 936,0 Z" fill="black" /><path d="M 820,0 Z" fill="black" /><path d="M 777,0 L 778,1 L 778,2 L 779,1 L 781,1 L 780,0 L 779,1 L 778,0 Z" fill="black" /><path d="M 775,0 Z" fill="black" /><path d="M 742,0 Z" fill="black" /><path d="M 628,0 L 628,1 Z" fill="black" /><path d="M 539,0 L 540,0 L 542,2 L 542,1 L 541,0 Z" fill="black" /><path d="M 537,0 Z" fill="black" /><path d="M 0,0 L 0,7 L 1,8 L 0,9 L 1,9 L 2,10 L 0,12 L 2,10 L 3,11 L 3,12 L 4,12 L 5,13 L 2,16 L 1,16 L 0,15 L 0,20 L 1,21 L 0,22 L 0,24 L 0,23 L 1,22 L 2,22 L 3,23 L 4,23 L 5,24 L 4,25 L 3,25 L 2,26 L 1,26 L 0,27 L 0,31 L 0,28 L 1,27 L 2,27 L 3,28 L 3,29 L 3,28 L 4,27 L 4,26 L 6,24 L 7,24 L 8,25 L 6,27 L 6,28 L 7,29 L 7,30 L 6,31 L 5,30 L 4,31 L 3,31 L 3,32 L 4,32 L 5,33 L 5,34 L 6,35 L 5,36 L 4,36 L 1,33 L 0,33 L 0,34 L 1,35 L 1,36 L 2,37 L 0,39 L 1,40 L 0,41 L 0,42 L 1,41 L 2,41 L 3,42 L 2,43 L 3,43 L 5,45 L 4,46 L 3,46 L 2,45 L 1,45 L 2,46 L 2,47 L 1,48 L 0,47 L 0,51 L 1,52 L 1,53 L 0,54 L 0,56 L 1,56 L 3,58 L 3,59 L 1,61 L 0,61 L 0,62 L 1,62 L 1,61 L 2,60 L 4,62 L 3,63 L 3,64 L 2,65 L 1,65 L 2,66 L 1,67 L 0,67 L 0,72 L 1,71 L 3,73 L 2,74 L 0,74 L 1,74 L 2,75 L 2,78 L 1,79 L 0,78 L 0,77 L 0,80 L 1,80 L 2,81 L 0,83 L 0,90 L 1,90 L 2,89 L 2,88 L 3,87 L 5,87 L 6,88 L 5,89 L 4,89 L 4,90 L 5,90 L 6,89 L 7,89 L 8,90 L 8,91 L 7,92 L 6,92 L 4,94 L 3,93 L 3,92 L 2,93 L 1,93 L 0,94 L 0,97 L 1,97 L 4,100 L 4,101 L 3,102 L 3,105 L 4,106 L 3,107 L 2,107 L 0,105 L 0,104 L 1,103 L 0,103 L 0,109 L 2,109 L 3,110 L 1,112 L 0,112 L 2,112 L 3,111 L 4,111 L 7,108 L 8,109 L 8,111 L 7,112 L 8,113 L 8,115 L 9,114 L 10,114 L 11,115 L 9,117 L 8,117 L 7,118 L 6,118 L 5,117 L 5,118 L 4,119 L 3,118 L 3,116 L 2,115 L 2,117 L 1,118 L 0,117 L 0,121 L 1,121 L 2,122 L 2,123 L 1,124 L 0,123 L 0,127 L 1,128 L 1,129 L 0,130 L 0,131 L 1,132 L 1,133 L 0,134 L 1,134 L 2,133 L 3,133 L 4,134 L 5,134 L 6,133 L 7,134 L 7,135 L 6,136 L 1,136 L 0,137 L 0,138 L 2,136 L 3,137 L 3,139 L 2,140 L 1,140 L 1,141 L 0,142 L 0,144 L 1,145 L 0,146 L 0,147 L 1,148 L 0,149 L 0,151 L 1,152 L 0,153 L 0,160 L 2,160 L 4,162 L 4,163 L 5,164 L 3,166 L 2,166 L 1,165 L 2,164 L 1,164 L 0,163 L 0,164 L 1,165 L 0,166 L 0,167 L 4,167 L 5,168 L 4,169 L 0,169 L 0,173 L 1,174 L 0,175 L 0,176 L 1,176 L 3,178 L 3,179 L 4,178 L 4,176 L 5,175 L 7,175 L 8,176 L 8,178 L 7,179 L 6,179 L 3,182 L 2,182 L 1,181 L 1,179 L 0,178 L 0,182 L 2,184 L 1,185 L 0,185 L 0,193 L 1,193 L 2,194 L 0,196 L 0,197 L 1,197 L 2,198 L 1,199 L 2,200 L 1,201 L 0,201 L 0,203 L 1,203 L 2,204 L 1,205 L 0,205 L 1,206 L 0,207 L 2,207 L 3,208 L 1,210 L 0,210 L 0,212 L 1,213 L 0,214 L 1,215 L 1,216 L 2,216 L 3,217 L 3,218 L 2,219 L 0,219 L 1,220 L 0,221 L 0,224 L 1,223 L 2,224 L 2,225 L 1,226 L 0,226 L 0,228 L 1,227 L 2,227 L 3,228 L 3,229 L 2,230 L 3,231 L 1,233 L 0,232 L 0,230 L 0,232 L 1,233 L 0,234 L 0,235 L 1,235 L 2,236 L 1,237 L 0,237 L 0,238 L 3,238 L 4,239 L 3,240 L 2,240 L 1,241 L 0,240 L 1,241 L 1,242 L 2,243 L 1,244 L 0,244 L 0,246 L 1,246 L 2,247 L 1,248 L 0,248 L 0,253 L 1,253 L 2,254 L 2,256 L 1,257 L 1,258 L 1,257 L 2,256 L 3,257 L 4,256 L 5,257 L 5,258 L 4,259 L 3,259 L 3,260 L 4,260 L 5,259 L 6,259 L 8,261 L 8,262 L 7,263 L 6,262 L 3,262 L 2,263 L 1,262 L 1,260 L 0,260 L 0,263 L 3,263 L 5,265 L 5,266 L 4,267 L 3,267 L 2,266 L 0,266 L 0,267 L 1,267 L 2,268 L 2,269 L 1,270 L 0,270 L 1,270 L 2,269 L 3,270 L 3,271 L 2,272 L 0,272 L 1,273 L 0,274 L 1,275 L 1,277 L 0,278 L 0,282 L 3,285 L 2,286 L 0,286 L 0,299 L 0,298 L 1,297 L 2,297 L 3,298 L 2,299 L 3,299 L 4,300 L 3,301 L 1,301 L 1,302 L 0,303 L 0,306 L 0,305 L 1,304 L 2,305 L 2,308 L 0,310 L 1,309 L 2,310 L 4,310 L 5,311 L 4,312 L 0,312 L 0,316 L 2,314 L 3,314 L 4,315 L 3,316 L 4,315 L 5,316 L 5,317 L 4,318 L 4,320 L 3,321 L 1,321 L 0,320 L 1,319 L 2,319 L 1,318 L 0,319 L 0,322 L 2,322 L 3,323 L 2,324 L 3,324 L 3,323 L 4,322 L 6,324 L 4,326 L 0,326 L 1,326 L 2,327 L 2,328 L 0,330 L 0,331 L 1,332 L 0,333 L 0,337 L 1,338 L 0,339 L 0,342 L 2,342 L 3,343 L 2,344 L 0,344 L 0,351 L 1,351 L 2,352 L 2,353 L 3,354 L 3,355 L 5,353 L 6,354 L 6,356 L 4,358 L 3,357 L 2,357 L 1,356 L 1,355 L 0,354 L 0,355 L 2,357 L 2,361 L 1,362 L 2,363 L 0,365 L 0,366 L 1,367 L 0,368 L 0,372 L 1,372 L 2,373 L 2,374 L 1,375 L 0,375 L 0,379 L 1,380 L 2,380 L 3,381 L 3,382 L 3,381 L 2,380 L 2,379 L 3,378 L 4,378 L 5,379 L 5,382 L 6,382 L 7,383 L 6,384 L 3,384 L 5,386 L 4,387 L 1,387 L 0,386 L 0,393 L 1,394 L 0,395 L 1,395 L 2,394 L 3,395 L 3,397 L 2,398 L 1,398 L 1,401 L 0,402 L 0,405 L 1,405 L 2,406 L 0,408 L 0,415 L 1,416 L 0,417 L 2,419 L 1,420 L 0,420 L 0,422 L 1,423 L 0,424 L 0,425 L 1,424 L 2,424 L 3,425 L 3,426 L 2,427 L 0,427 L 1,428 L 1,429 L 2,430 L 1,431 L 0,431 L 0,435 L 1,436 L 0,437 L 0,440 L 1,441 L 1,442 L 0,443 L 0,446 L 1,446 L 2,447 L 2,448 L 1,449 L 0,448 L 0,451 L 1,452 L 1,453 L 0,454 L 0,455 L 1,456 L 2,456 L 3,457 L 3,458 L 2,459 L 1,459 L 0,458 L 0,464 L 1,465 L 0,466 L 0,467 L 1,468 L 1,470 L 3,472 L 3,473 L 1,475 L 0,475 L 0,480 L 1,481 L 0,482 L 3,485 L 1,487 L 0,486 L 0,485 L 0,487 L 1,488 L 2,488 L 2,486 L 3,485 L 4,486 L 4,489 L 1,492 L 0,491 L 0,490 L 0,491 L 1,492 L 0,493 L 0,495 L 1,495 L 2,494 L 3,494 L 4,495 L 1,498 L 0,498 L 1,498 L 2,499 L 1,500 L 0,500 L 0,502 L 1,501 L 2,501 L 3,502 L 1,504 L 0,504 L 1,504 L 2,505 L 1,506 L 0,506 L 0,507 L 1,506 L 2,507 L 2,509 L 0,511 L 0,518 L 1,519 L 0,520 L 0,522 L 1,522 L 2,523 L 2,524 L 1,525 L 0,524 L 0,526 L 1,527 L 1,528 L 0,529 L 0,530 L 2,532 L 1,533 L 1,534 L 2,535 L 2,534 L 3,533 L 4,533 L 6,535 L 6,536 L 5,537 L 0,537 L 1,537 L 2,538 L 2,540 L 1,541 L 0,540 L 0,545 L 0,543 L 1,542 L 2,542 L 3,543 L 3,544 L 2,545 L 2,547 L 0,549 L 0,550 L 1,551 L 0,552 L 1,553 L 0,554 L 0,555 L 1,556 L 0,557 L 2,557 L 3,558 L 3,559 L 1,561 L 0,560 L 0,561 L 1,562 L 0,563 L 0,566 L 1,567 L 3,567 L 4,568 L 2,570 L 1,569 L 0,570 L 1,570 L 2,571 L 2,572 L 1,573 L 0,572 L 0,583 L 1,584 L 1,585 L 0,586 L 1,587 L 0,588 L 0,592 L 1,592 L 2,593 L 1,594 L 1,595 L 0,596 L 0,604 L 1,605 L 1,606 L 0,607 L 0,609 L 2,609 L 1,608 L 1,606 L 3,604 L 4,604 L 6,606 L 5,605 L 5,604 L 7,602 L 8,602 L 9,603 L 8,604 L 8,606 L 9,605 L 11,605 L 12,606 L 12,607 L 9,610 L 8,610 L 7,609 L 7,608 L 7,609 L 9,611 L 9,612 L 7,614 L 6,613 L 6,611 L 6,612 L 2,616 L 1,616 L 0,615 L 0,616 L 1,617 L 0,618 L 4,618 L 5,619 L 7,619 L 8,620 L 7,621 L 6,621 L 5,622 L 4,621 L 3,621 L 2,620 L 0,620 L 0,627 L 1,628 L 0,629 L 0,631 L 2,631 L 3,632 L 2,633 L 0,633 L 0,635 L 1,636 L 0,637 L 0,638 L 1,638 L 2,639 L 0,641 L 0,644 L 2,646 L 0,648 L 0,649 L 1,650 L 0,651 L 0,654 L 1,653 L 2,653 L 4,655 L 4,656 L 3,657 L 2,656 L 4,658 L 2,660 L 1,660 L 0,659 L 0,658 L 0,663 L 1,663 L 1,661 L 3,659 L 4,660 L 5,660 L 6,661 L 6,662 L 5,663 L 3,663 L 3,665 L 2,666 L 1,666 L 0,665 L 0,666 L 1,666 L 2,667 L 2,668 L 3,668 L 4,669 L 3,670 L 4,669 L 5,670 L 5,671 L 6,672 L 5,673 L 4,673 L 3,672 L 1,672 L 0,671 L 2,673 L 2,675 L 3,674 L 5,674 L 6,673 L 7,673 L 8,674 L 6,676 L 6,677 L 5,678 L 3,678 L 2,677 L 1,678 L 0,678 L 1,678 L 2,679 L 1,680 L 0,680 L 0,684 L 1,685 L 0,686 L 2,688 L 2,689 L 0,691 L 0,692 L 2,694 L 1,695 L 0,695 L 0,703 L 1,704 L 1,705 L 0,706 L 0,709 L 1,708 L 2,709 L 2,710 L 1,711 L 0,711 L 0,714 L 1,715 L 0,716 L 1,715 L 2,716 L 4,716 L 4,715 L 5,714 L 6,715 L 7,715 L 8,716 L 9,716 L 10,717 L 8,719 L 7,718 L 6,719 L 5,718 L 4,718 L 4,719 L 3,720 L 3,721 L 5,721 L 6,720 L 7,721 L 7,722 L 6,723 L 4,723 L 3,724 L 2,724 L 2,725 L 1,726 L 0,725 L 0,723 L 0,728 L 2,730 L 2,731 L 1,732 L 0,732 L 0,733 L 1,733 L 2,734 L 1,735 L 1,736 L 0,737 L 0,738 L 2,738 L 3,739 L 3,740 L 2,741 L 0,741 L 0,742 L 1,743 L 0,744 L 1,744 L 2,745 L 4,745 L 5,746 L 3,748 L 2,747 L 1,747 L 0,746 L 0,752 L 3,752 L 4,751 L 5,752 L 5,753 L 7,751 L 7,750 L 8,749 L 9,750 L 11,750 L 12,751 L 11,752 L 10,752 L 8,754 L 8,756 L 7,757 L 5,755 L 4,756 L 3,755 L 3,754 L 2,755 L 1,755 L 1,758 L 0,759 L 1,760 L 2,760 L 3,759 L 4,759 L 5,758 L 6,758 L 7,759 L 6,760 L 7,759 L 8,760 L 8,761 L 7,762 L 6,762 L 7,763 L 7,764 L 6,765 L 4,763 L 4,762 L 2,762 L 1,763 L 1,765 L 2,764 L 1,763 L 2,762 L 3,762 L 4,763 L 4,765 L 6,765 L 7,764 L 10,767 L 8,769 L 7,768 L 5,768 L 4,767 L 5,768 L 4,769 L 5,769 L 6,770 L 6,769 L 7,768 L 8,769 L 8,772 L 7,773 L 5,773 L 4,772 L 4,771 L 4,774 L 6,774 L 7,775 L 8,775 L 9,776 L 6,779 L 4,777 L 5,776 L 4,777 L 3,777 L 2,776 L 2,771 L 0,773 L 0,775 L 1,776 L 1,777 L 0,778 L 0,779 L 5,779 L 6,780 L 4,782 L 2,782 L 3,783 L 1,785 L 0,784 L 0,786 L 5,786 L 6,787 L 5,788 L 4,788 L 2,790 L 0,790 L 1,790 L 2,791 L 2,792 L 1,793 L 2,794 L 0,796 L 0,801 L 2,799 L 2,798 L 1,797 L 2,796 L 4,796 L 5,797 L 6,797 L 7,798 L 7,799 L 6,800 L 5,799 L 6,800 L 6,801 L 5,802 L 5,803 L 4,804 L 3,804 L 2,803 L 0,803 L 0,809 L 1,810 L 0,811 L 2,813 L 1,814 L 0,814 L 0,819 L 1,820 L 0,821 L 0,823 L 1,824 L 1,825 L 0,826 L 2,826 L 3,827 L 4,827 L 5,826 L 6,826 L 7,827 L 7,828 L 5,830 L 5,831 L 3,833 L 4,832 L 5,832 L 6,831 L 8,833 L 7,834 L 5,834 L 3,836 L 2,836 L 0,834 L 2,836 L 2,837 L 1,838 L 0,837 L 0,843 L 1,843 L 1,841 L 0,840 L 2,838 L 4,838 L 5,839 L 4,840 L 3,840 L 3,842 L 4,841 L 5,842 L 5,843 L 4,844 L 3,844 L 4,845 L 2,847 L 0,845 L 1,846 L 0,847 L 0,848 L 1,847 L 2,848 L 2,850 L 3,851 L 3,852 L 4,853 L 3,854 L 2,854 L 1,853 L 0,854 L 1,853 L 2,854 L 3,854 L 4,855 L 3,856 L 0,856 L 1,857 L 0,858 L 1,858 L 2,859 L 2,857 L 3,856 L 5,856 L 6,857 L 6,858 L 7,858 L 8,859 L 9,858 L 10,858 L 11,857 L 12,858 L 12,859 L 11,860 L 10,860 L 10,861 L 9,862 L 9,863 L 8,864 L 7,864 L 6,865 L 5,864 L 5,863 L 4,863 L 3,862 L 5,864 L 5,865 L 4,866 L 1,863 L 0,864 L 0,866 L 1,866 L 2,867 L 2,868 L 3,868 L 4,869 L 3,870 L 3,871 L 2,872 L 1,871 L 1,870 L 0,869 L 0,871 L 1,871 L 2,872 L 2,873 L 1,874 L 0,874 L 1,874 L 3,876 L 1,878 L 2,879 L 2,881 L 0,883 L 0,884 L 1,883 L 2,884 L 2,885 L 1,886 L 0,886 L 0,890 L 1,891 L 0,892 L 0,893 L 1,894 L 1,896 L 0,897 L 0,900 L 1,900 L 1,899 L 2,898 L 3,898 L 2,897 L 3,896 L 5,896 L 5,895 L 6,894 L 7,894 L 8,895 L 7,896 L 7,898 L 8,899 L 8,900 L 7,901 L 5,901 L 4,902 L 3,901 L 1,903 L 0,903 L 1,904 L 0,905 L 0,906 L 1,906 L 2,905 L 3,905 L 4,906 L 4,909 L 3,910 L 1,908 L 0,908 L 0,909 L 1,909 L 2,910 L 1,911 L 0,911 L 0,913 L 1,913 L 2,914 L 1,915 L 0,915 L 1,916 L 0,917 L 0,918 L 1,919 L 2,919 L 3,920 L 2,921 L 3,922 L 3,923 L 4,924 L 3,925 L 2,925 L 0,923 L 0,921 L 0,924 L 1,925 L 1,926 L 2,927 L 0,929 L 0,937 L 1,938 L 1,940 L 0,941 L 0,945 L 1,946 L 0,947 L 0,952 L 1,952 L 1,951 L 2,950 L 3,951 L 4,951 L 5,952 L 5,955 L 6,956 L 4,958 L 5,957 L 6,958 L 6,959 L 5,960 L 3,960 L 2,961 L 1,961 L 0,960 L 0,963 L 1,964 L 0,965 L 0,967 L 1,967 L 2,968 L 2,969 L 1,970 L 0,970 L 0,974 L 1,974 L 2,975 L 1,976 L 1,977 L 0,978 L 0,983 L 2,983 L 3,984 L 1,986 L 0,985 L 0,989 L 2,989 L 3,990 L 2,991 L 1,991 L 0,992 L 0,999 L 1,1000 L 0,1001 L 0,1002 L 1,1001 L 1,1000 L 2,999 L 4,1001 L 4,1002 L 1,1005 L 2,1006 L 0,1008 L 0,1015 L 1,1014 L 3,1016 L 3,1017 L 2,1018 L 1,1017 L 0,1017 L 0,1023 L 2,1021 L 3,1022 L 3,1023 L 6,1023 L 7,1022 L 8,1023 L 7,1022 L 11,1018 L 12,1019 L 12,1020 L 11,1021 L 11,1022 L 10,1023 L 11,1023 L 12,1022 L 13,1023 L 11,1021 L 12,1020 L 14,1020 L 15,1021 L 15,1023 L 16,1022 L 17,1023 L 21,1023 L 22,1022 L 23,1023 L 24,1023 L 25,1022 L 26,1023 L 32,1023 L 33,1022 L 33,1021 L 34,1020 L 36,1022 L 35,1023 L 36,1023 L 37,1022 L 38,1023 L 48,1023 L 48,1022 L 51,1019 L 52,1019 L 52,1018 L 53,1017 L 54,1017 L 56,1019 L 55,1020 L 56,1020 L 57,1021 L 57,1022 L 58,1023 L 63,1023 L 62,1022 L 63,1021 L 64,1021 L 65,1022 L 65,1023 L 68,1023 L 67,1022 L 68,1021 L 69,1021 L 71,1023 L 71,1021 L 72,1020 L 73,1021 L 73,1022 L 74,1023 L 78,1023 L 79,1022 L 80,1023 L 81,1023 L 81,1022 L 79,1020 L 80,1019 L 82,1019 L 84,1021 L 85,1021 L 86,1020 L 88,1022 L 87,1023 L 84,1023 L 89,1023 L 90,1022 L 91,1023 L 92,1023 L 93,1022 L 94,1023 L 95,1023 L 95,1022 L 94,1021 L 94,1020 L 95,1019 L 98,1022 L 97,1023 L 98,1023 L 99,1022 L 100,1023 L 99,1022 L 100,1021 L 101,1021 L 103,1023 L 123,1023 L 124,1022 L 125,1023 L 133,1023 L 134,1022 L 135,1023 L 136,1022 L 137,1023 L 138,1023 L 137,1022 L 136,1022 L 135,1021 L 133,1021 L 132,1022 L 131,1021 L 131,1019 L 130,1018 L 130,1016 L 131,1015 L 133,1017 L 133,1019 L 134,1019 L 134,1017 L 135,1016 L 136,1017 L 136,1018 L 137,1019 L 139,1019 L 140,1020 L 140,1021 L 142,1023 L 148,1023 L 149,1022 L 150,1023 L 157,1023 L 158,1022 L 159,1023 L 160,1022 L 161,1023 L 163,1023 L 164,1022 L 165,1023 L 170,1023 L 171,1022 L 172,1023 L 191,1023 L 192,1022 L 193,1023 L 204,1023 L 203,1023 L 202,1022 L 205,1019 L 208,1019 L 208,1018 L 210,1016 L 211,1017 L 211,1018 L 210,1019 L 211,1019 L 212,1020 L 210,1022 L 209,1022 L 210,1023 L 210,1022 L 211,1021 L 212,1021 L 213,1022 L 213,1023 L 218,1023 L 219,1022 L 220,1023 L 219,1022 L 221,1020 L 222,1020 L 223,1021 L 223,1022 L 224,1023 L 225,1022 L 226,1022 L 227,1023 L 237,1023 L 237,1022 L 236,1023 L 233,1023 L 232,1022 L 234,1020 L 236,1020 L 237,1019 L 238,1019 L 239,1020 L 239,1023 L 241,1023 L 242,1022 L 244,1022 L 245,1023 L 246,1023 L 247,1022 L 248,1022 L 250,1020 L 251,1020 L 252,1021 L 251,1022 L 251,1023 L 254,1023 L 254,1022 L 255,1021 L 257,1023 L 259,1023 L 260,1022 L 261,1023 L 264,1023 L 264,1022 L 263,1022 L 262,1023 L 261,1022 L 261,1021 L 258,1021 L 257,1020 L 258,1019 L 259,1019 L 259,1018 L 260,1017 L 261,1018 L 262,1018 L 263,1019 L 263,1020 L 263,1019 L 264,1018 L 265,1019 L 266,1019 L 265,1019 L 264,1018 L 264,1016 L 265,1015 L 266,1016 L 266,1017 L 267,1017 L 268,1018 L 268,1020 L 269,1020 L 270,1021 L 269,1022 L 267,1022 L 267,1023 L 269,1023 L 269,1022 L 270,1021 L 271,1022 L 271,1023 L 279,1023 L 281,1021 L 281,1017 L 282,1016 L 284,1018 L 284,1019 L 285,1020 L 284,1021 L 284,1022 L 283,1023 L 282,1023 L 284,1023 L 285,1022 L 286,1023 L 287,1023 L 287,1022 L 288,1021 L 289,1022 L 289,1023 L 292,1023 L 293,1022 L 294,1023 L 295,1023 L 294,1022 L 294,1018 L 295,1017 L 296,1018 L 296,1020 L 298,1022 L 298,1023 L 298,1022 L 299,1021 L 301,1021 L 302,1020 L 303,1021 L 303,1022 L 302,1023 L 303,1022 L 303,1021 L 304,1020 L 305,1020 L 306,1021 L 306,1023 L 309,1023 L 309,1021 L 310,1020 L 312,1022 L 311,1023 L 314,1023 L 315,1022 L 316,1023 L 318,1023 L 319,1022 L 320,1023 L 322,1023 L 323,1022 L 324,1023 L 325,1023 L 326,1022 L 327,1022 L 328,1023 L 329,1023 L 329,1021 L 330,1020 L 331,1021 L 331,1022 L 332,1023 L 335,1023 L 337,1021 L 339,1023 L 340,1023 L 341,1022 L 342,1023 L 343,1023 L 344,1022 L 345,1023 L 354,1023 L 354,1022 L 355,1021 L 357,1023 L 358,1023 L 357,1022 L 359,1020 L 360,1021 L 360,1023 L 366,1023 L 366,1022 L 367,1021 L 370,1021 L 371,1022 L 371,1023 L 373,1023 L 373,1022 L 374,1021 L 375,1022 L 375,1023 L 379,1023 L 380,1022 L 381,1023 L 404,1023 L 405,1022 L 406,1022 L 407,1023 L 409,1023 L 408,1022 L 408,1021 L 409,1020 L 411,1022 L 412,1022 L 413,1023 L 414,1023 L 415,1022 L 416,1023 L 421,1023 L 421,1022 L 422,1021 L 424,1023 L 430,1023 L 431,1022 L 432,1023 L 441,1023 L 441,1022 L 442,1021 L 441,1021 L 440,1022 L 438,1022 L 437,1021 L 439,1019 L 440,1019 L 440,1018 L 441,1017 L 443,1017 L 444,1018 L 443,1019 L 445,1021 L 445,1022 L 444,1023 L 443,1023 L 444,1023 L 445,1022 L 446,1023 L 447,1022 L 448,1023 L 448,1021 L 449,1020 L 450,1021 L 450,1022 L 451,1023 L 454,1023 L 455,1022 L 456,1023 L 456,1022 L 457,1021 L 458,1022 L 458,1023 L 458,1022 L 457,1021 L 459,1019 L 460,1020 L 460,1021 L 461,1022 L 461,1023 L 462,1022 L 463,1023 L 464,1022 L 465,1022 L 466,1023 L 470,1023 L 470,1022 L 469,1021 L 469,1019 L 470,1018 L 472,1018 L 473,1019 L 472,1020 L 472,1021 L 473,1022 L 472,1023 L 473,1022 L 474,1023 L 479,1023 L 480,1022 L 481,1022 L 482,1023 L 484,1023 L 484,1018 L 485,1017 L 486,1018 L 486,1019 L 487,1018 L 488,1019 L 488,1020 L 488,1018 L 489,1017 L 489,1014 L 490,1013 L 491,1013 L 492,1014 L 491,1015 L 491,1016 L 492,1017 L 492,1018 L 490,1020 L 490,1021 L 489,1022 L 490,1023 L 492,1023 L 493,1022 L 494,1023 L 499,1023 L 499,1022 L 501,1020 L 503,1022 L 503,1023 L 503,1022 L 504,1021 L 503,1020 L 503,1019 L 504,1018 L 505,1018 L 506,1019 L 506,1020 L 507,1021 L 508,1021 L 509,1022 L 508,1023 L 509,1023 L 509,1021 L 508,1020 L 510,1018 L 511,1019 L 512,1018 L 513,1019 L 513,1020 L 512,1021 L 512,1022 L 511,1023 L 518,1023 L 518,1022 L 516,1022 L 515,1021 L 516,1020 L 516,1019 L 517,1018 L 519,1018 L 520,1019 L 519,1020 L 518,1020 L 520,1020 L 521,1021 L 521,1022 L 520,1023 L 532,1023 L 532,1022 L 531,1021 L 533,1019 L 532,1018 L 533,1017 L 534,1017 L 535,1018 L 535,1021 L 534,1022 L 534,1023 L 542,1023 L 543,1022 L 545,1022 L 546,1023 L 549,1023 L 548,1023 L 547,1022 L 548,1021 L 551,1021 L 551,1020 L 549,1020 L 548,1019 L 551,1016 L 552,1017 L 552,1018 L 553,1019 L 553,1022 L 552,1023 L 553,1022 L 554,1023 L 563,1023 L 563,1022 L 564,1021 L 565,1021 L 566,1022 L 565,1023 L 573,1023 L 574,1022 L 575,1023 L 576,1022 L 577,1022 L 578,1023 L 581,1023 L 580,1022 L 581,1021 L 583,1021 L 584,1022 L 584,1023 L 586,1023 L 585,1022 L 586,1021 L 589,1021 L 590,1022 L 589,1023 L 590,1022 L 591,1023 L 601,1023 L 602,1022 L 601,1021 L 603,1019 L 607,1019 L 608,1020 L 608,1021 L 606,1023 L 613,1023 L 614,1022 L 615,1023 L 621,1023 L 621,1022 L 622,1021 L 623,1022 L 623,1023 L 636,1023 L 637,1022 L 638,1022 L 637,1022 L 636,1021 L 637,1022 L 636,1023 L 635,1023 L 634,1022 L 634,1018 L 636,1016 L 637,1017 L 637,1019 L 638,1019 L 639,1020 L 640,1019 L 641,1020 L 641,1022 L 640,1023 L 641,1023 L 641,1022 L 642,1021 L 643,1022 L 643,1021 L 642,1020 L 642,1019 L 643,1018 L 645,1020 L 645,1019 L 644,1018 L 644,1017 L 645,1016 L 647,1018 L 647,1019 L 648,1020 L 648,1021 L 647,1022 L 646,1022 L 646,1023 L 649,1023 L 650,1022 L 653,1022 L 654,1023 L 656,1021 L 658,1023 L 663,1023 L 663,1021 L 664,1020 L 665,1020 L 666,1021 L 666,1023 L 669,1023 L 670,1022 L 671,1023 L 680,1023 L 681,1022 L 681,1019 L 682,1018 L 683,1018 L 684,1019 L 683,1020 L 684,1020 L 685,1021 L 686,1021 L 687,1022 L 687,1023 L 694,1023 L 695,1022 L 694,1021 L 694,1020 L 695,1019 L 696,1020 L 697,1020 L 698,1021 L 697,1022 L 697,1023 L 698,1023 L 697,1022 L 698,1021 L 699,1021 L 701,1019 L 702,1020 L 702,1021 L 703,1022 L 703,1023 L 711,1023 L 712,1022 L 713,1023 L 716,1023 L 717,1022 L 718,1023 L 737,1023 L 738,1022 L 739,1023 L 741,1023 L 740,1022 L 739,1022 L 738,1021 L 739,1020 L 742,1020 L 743,1021 L 743,1023 L 745,1021 L 746,1022 L 746,1023 L 748,1023 L 748,1022 L 746,1020 L 746,1019 L 747,1018 L 750,1021 L 751,1020 L 752,1021 L 752,1022 L 751,1023 L 752,1022 L 753,1022 L 754,1023 L 753,1022 L 753,1021 L 754,1020 L 756,1022 L 756,1023 L 756,1022 L 757,1021 L 758,1021 L 759,1022 L 759,1023 L 759,1022 L 760,1021 L 761,1022 L 761,1023 L 772,1023 L 773,1022 L 774,1023 L 779,1023 L 778,1022 L 779,1021 L 780,1021 L 782,1023 L 783,1023 L 784,1022 L 785,1023 L 786,1022 L 787,1023 L 795,1023 L 794,1022 L 796,1020 L 797,1020 L 798,1019 L 799,1020 L 799,1021 L 797,1023 L 798,1022 L 799,1023 L 805,1023 L 805,1021 L 804,1021 L 803,1020 L 803,1019 L 804,1018 L 805,1019 L 806,1018 L 808,1020 L 808,1021 L 809,1022 L 808,1023 L 809,1022 L 810,1023 L 812,1023 L 813,1022 L 814,1022 L 814,1021 L 815,1020 L 816,1021 L 816,1023 L 819,1023 L 818,1022 L 819,1021 L 820,1021 L 822,1023 L 829,1023 L 829,1020 L 831,1018 L 832,1019 L 832,1020 L 831,1021 L 831,1023 L 833,1023 L 834,1022 L 835,1022 L 835,1021 L 836,1020 L 837,1021 L 838,1021 L 839,1022 L 839,1023 L 847,1023 L 847,1021 L 848,1020 L 849,1021 L 849,1023 L 850,1023 L 852,1021 L 854,1021 L 855,1020 L 856,1021 L 856,1023 L 859,1023 L 858,1023 L 856,1021 L 857,1020 L 859,1020 L 862,1023 L 864,1023 L 865,1022 L 866,1022 L 867,1023 L 867,1021 L 866,1020 L 866,1018 L 867,1017 L 868,1018 L 868,1019 L 869,1020 L 869,1021 L 870,1022 L 869,1023 L 872,1023 L 872,1022 L 873,1021 L 874,1022 L 874,1023 L 876,1023 L 876,1022 L 877,1021 L 879,1023 L 888,1023 L 888,1021 L 889,1020 L 890,1020 L 891,1021 L 891,1022 L 890,1023 L 894,1023 L 895,1022 L 896,1023 L 902,1023 L 903,1022 L 904,1023 L 905,1022 L 906,1023 L 908,1023 L 910,1021 L 911,1022 L 911,1023 L 915,1023 L 916,1022 L 917,1022 L 918,1023 L 922,1023 L 923,1022 L 923,1021 L 922,1021 L 921,1020 L 923,1018 L 922,1017 L 924,1015 L 928,1019 L 928,1021 L 929,1021 L 930,1022 L 929,1023 L 931,1023 L 931,1022 L 933,1020 L 933,1019 L 934,1018 L 935,1018 L 936,1019 L 935,1020 L 935,1021 L 936,1022 L 935,1023 L 937,1023 L 936,1022 L 936,1021 L 937,1020 L 938,1020 L 939,1021 L 939,1023 L 940,1022 L 941,1023 L 944,1020 L 946,1020 L 947,1019 L 948,1019 L 949,1020 L 950,1019 L 951,1019 L 952,1020 L 950,1022 L 948,1022 L 949,1023 L 950,1023 L 951,1022 L 952,1023 L 957,1023 L 957,1022 L 959,1020 L 960,1021 L 960,1022 L 959,1023 L 963,1023 L 966,1020 L 967,1021 L 968,1020 L 970,1022 L 969,1023 L 968,1023 L 969,1023 L 970,1022 L 971,1022 L 972,1023 L 973,1022 L 972,1021 L 974,1019 L 975,1019 L 976,1020 L 976,1021 L 975,1022 L 975,1023 L 975,1022 L 976,1021 L 977,1022 L 977,1023 L 978,1023 L 978,1020 L 979,1019 L 981,1019 L 982,1018 L 981,1017 L 980,1018 L 979,1018 L 978,1017 L 977,1017 L 976,1016 L 977,1015 L 982,1015 L 983,1014 L 984,1015 L 984,1017 L 985,1018 L 984,1019 L 984,1022 L 983,1023 L 992,1023 L 993,1022 L 996,1022 L 997,1023 L 1002,1023 L 1004,1021 L 1005,1021 L 1006,1022 L 1006,1023 L 1009,1023 L 1010,1022 L 1011,1023 L 1016,1023 L 1017,1022 L 1018,1023 L 1023,1023 L 1023,1005 L 1022,1006 L 1020,1006 L 1019,1005 L 1022,1002 L 1023,1002 L 1023,994 L 1022,993 L 1021,993 L 1020,992 L 1021,991 L 1023,991 L 1023,990 L 1022,989 L 1023,988 L 1023,986 L 1022,986 L 1021,985 L 1023,983 L 1023,980 L 1022,979 L 1023,978 L 1023,974 L 1022,974 L 1021,973 L 1022,972 L 1023,972 L 1023,970 L 1022,970 L 1021,971 L 1020,971 L 1019,970 L 1018,970 L 1016,968 L 1015,968 L 1014,967 L 1015,966 L 1015,965 L 1014,964 L 1014,963 L 1016,961 L 1017,961 L 1018,962 L 1018,963 L 1019,964 L 1020,964 L 1021,965 L 1019,967 L 1019,968 L 1022,968 L 1021,967 L 1022,966 L 1023,966 L 1023,957 L 1022,957 L 1022,959 L 1021,960 L 1019,958 L 1019,957 L 1021,955 L 1020,954 L 1019,954 L 1018,955 L 1019,955 L 1020,956 L 1019,957 L 1019,958 L 1020,959 L 1020,960 L 1019,961 L 1016,958 L 1016,957 L 1016,958 L 1015,959 L 1014,959 L 1013,958 L 1014,957 L 1013,956 L 1015,954 L 1015,953 L 1013,953 L 1012,954 L 1011,954 L 1010,955 L 1011,955 L 1012,956 L 1012,957 L 1011,958 L 1010,957 L 1008,957 L 1007,956 L 1007,955 L 1006,954 L 1007,953 L 1008,953 L 1009,952 L 1010,952 L 1012,950 L 1013,951 L 1014,950 L 1016,950 L 1017,951 L 1017,952 L 1020,952 L 1020,951 L 1023,948 L 1023,946 L 1022,945 L 1023,944 L 1022,945 L 1020,943 L 1021,942 L 1023,942 L 1023,941 L 1022,940 L 1022,937 L 1020,935 L 1020,933 L 1020,935 L 1019,936 L 1016,936 L 1015,935 L 1016,934 L 1015,933 L 1016,932 L 1016,931 L 1015,931 L 1014,930 L 1014,929 L 1015,928 L 1016,929 L 1016,928 L 1014,928 L 1013,927 L 1014,926 L 1015,926 L 1015,925 L 1016,924 L 1016,920 L 1015,919 L 1015,918 L 1016,917 L 1018,919 L 1018,920 L 1019,921 L 1019,922 L 1018,923 L 1019,924 L 1019,925 L 1020,926 L 1018,928 L 1019,929 L 1020,928 L 1019,927 L 1020,926 L 1021,926 L 1022,927 L 1022,929 L 1020,931 L 1019,931 L 1021,931 L 1021,930 L 1022,929 L 1023,930 L 1023,931 L 1023,926 L 1021,924 L 1020,924 L 1019,923 L 1020,922 L 1020,921 L 1021,920 L 1022,921 L 1022,922 L 1023,921 L 1023,919 L 1022,919 L 1021,920 L 1020,920 L 1019,919 L 1020,918 L 1020,917 L 1022,915 L 1023,916 L 1023,905 L 1022,904 L 1022,903 L 1023,902 L 1023,896 L 1022,895 L 1022,893 L 1023,892 L 1023,891 L 1022,890 L 1023,889 L 1022,889 L 1021,888 L 1023,886 L 1023,885 L 1022,885 L 1021,886 L 1022,887 L 1021,888 L 1018,888 L 1017,887 L 1017,886 L 1018,885 L 1018,883 L 1020,881 L 1022,883 L 1023,883 L 1023,882 L 1022,881 L 1023,880 L 1023,878 L 1023,879 L 1022,880 L 1021,879 L 1020,879 L 1018,877 L 1019,876 L 1021,876 L 1021,875 L 1022,874 L 1023,875 L 1023,876 L 1023,872 L 1021,874 L 1020,874 L 1019,873 L 1020,872 L 1019,871 L 1021,869 L 1022,869 L 1023,870 L 1022,869 L 1023,868 L 1022,868 L 1020,870 L 1018,868 L 1021,865 L 1023,865 L 1023,864 L 1022,865 L 1021,865 L 1020,864 L 1020,862 L 1021,861 L 1022,861 L 1023,862 L 1023,859 L 1021,857 L 1020,857 L 1019,856 L 1018,856 L 1018,857 L 1017,858 L 1016,858 L 1015,857 L 1016,856 L 1016,855 L 1017,854 L 1018,854 L 1017,854 L 1016,855 L 1014,853 L 1014,852 L 1015,851 L 1016,852 L 1015,851 L 1015,850 L 1017,848 L 1018,849 L 1018,850 L 1018,849 L 1017,848 L 1018,847 L 1021,847 L 1022,848 L 1023,848 L 1023,840 L 1021,838 L 1021,837 L 1022,836 L 1023,837 L 1022,836 L 1021,837 L 1019,835 L 1021,833 L 1022,834 L 1023,833 L 1023,830 L 1022,829 L 1021,830 L 1022,829 L 1023,830 L 1023,832 L 1022,833 L 1021,833 L 1020,832 L 1019,832 L 1018,831 L 1019,830 L 1019,829 L 1018,829 L 1017,828 L 1019,826 L 1019,825 L 1020,824 L 1021,825 L 1021,826 L 1022,826 L 1023,827 L 1023,826 L 1022,825 L 1022,824 L 1023,823 L 1023,820 L 1022,819 L 1022,821 L 1023,822 L 1021,824 L 1020,824 L 1019,825 L 1017,823 L 1017,822 L 1018,821 L 1020,821 L 1020,817 L 1021,816 L 1022,817 L 1023,816 L 1023,814 L 1021,814 L 1020,813 L 1021,812 L 1023,812 L 1023,810 L 1021,812 L 1018,809 L 1019,810 L 1018,811 L 1017,811 L 1016,812 L 1015,811 L 1013,813 L 1011,813 L 1010,812 L 1013,809 L 1016,809 L 1016,808 L 1017,807 L 1019,807 L 1020,808 L 1021,807 L 1022,807 L 1021,806 L 1021,805 L 1022,804 L 1023,805 L 1023,800 L 1019,800 L 1017,798 L 1017,796 L 1019,794 L 1020,795 L 1020,796 L 1021,797 L 1021,798 L 1023,798 L 1022,798 L 1021,797 L 1021,794 L 1020,793 L 1021,792 L 1021,788 L 1022,787 L 1023,788 L 1023,791 L 1023,788 L 1022,787 L 1022,786 L 1023,785 L 1023,784 L 1022,783 L 1023,782 L 1023,779 L 1022,779 L 1021,778 L 1021,777 L 1020,778 L 1019,777 L 1019,775 L 1020,774 L 1023,774 L 1023,773 L 1022,774 L 1021,773 L 1021,771 L 1020,770 L 1021,769 L 1022,769 L 1023,768 L 1023,767 L 1022,766 L 1020,768 L 1019,767 L 1019,766 L 1022,763 L 1023,763 L 1023,759 L 1023,760 L 1022,761 L 1021,760 L 1021,759 L 1020,758 L 1020,757 L 1018,755 L 1018,754 L 1019,753 L 1021,755 L 1022,754 L 1023,755 L 1023,757 L 1023,753 L 1022,754 L 1021,753 L 1021,749 L 1022,748 L 1023,748 L 1023,745 L 1022,745 L 1022,746 L 1023,747 L 1021,749 L 1020,748 L 1020,745 L 1017,745 L 1016,744 L 1017,743 L 1021,743 L 1021,742 L 1022,741 L 1023,742 L 1023,736 L 1022,735 L 1023,734 L 1023,727 L 1022,726 L 1023,725 L 1022,725 L 1021,724 L 1021,723 L 1022,722 L 1023,722 L 1023,719 L 1023,720 L 1022,721 L 1022,722 L 1020,724 L 1019,724 L 1018,723 L 1017,723 L 1015,721 L 1015,720 L 1016,719 L 1017,719 L 1018,720 L 1019,719 L 1020,719 L 1023,716 L 1023,712 L 1022,711 L 1023,710 L 1023,709 L 1022,709 L 1021,708 L 1023,706 L 1023,704 L 1021,704 L 1020,703 L 1019,703 L 1019,706 L 1020,707 L 1019,708 L 1018,708 L 1017,707 L 1016,708 L 1015,707 L 1015,706 L 1016,705 L 1015,704 L 1016,703 L 1017,703 L 1017,701 L 1018,700 L 1020,700 L 1022,698 L 1023,699 L 1023,701 L 1023,688 L 1022,687 L 1023,686 L 1023,684 L 1022,685 L 1021,684 L 1021,683 L 1022,682 L 1023,682 L 1023,681 L 1022,681 L 1021,680 L 1022,679 L 1023,679 L 1023,678 L 1022,677 L 1022,676 L 1023,675 L 1022,675 L 1021,676 L 1020,675 L 1019,675 L 1018,674 L 1018,673 L 1020,671 L 1022,671 L 1023,672 L 1023,667 L 1023,668 L 1020,671 L 1019,670 L 1019,667 L 1022,664 L 1023,664 L 1021,664 L 1020,663 L 1021,662 L 1020,663 L 1018,661 L 1018,659 L 1019,658 L 1020,659 L 1022,659 L 1023,660 L 1023,661 L 1023,658 L 1022,658 L 1021,657 L 1020,657 L 1019,656 L 1020,655 L 1019,654 L 1020,655 L 1019,656 L 1019,658 L 1017,660 L 1016,660 L 1015,659 L 1015,658 L 1014,658 L 1013,657 L 1014,656 L 1016,656 L 1016,655 L 1017,654 L 1017,653 L 1018,652 L 1017,652 L 1016,651 L 1016,649 L 1015,650 L 1014,650 L 1013,649 L 1015,647 L 1014,646 L 1016,644 L 1017,644 L 1019,646 L 1018,647 L 1021,647 L 1022,648 L 1021,649 L 1022,649 L 1023,648 L 1022,648 L 1021,647 L 1021,646 L 1022,645 L 1023,646 L 1023,642 L 1022,643 L 1022,644 L 1021,645 L 1020,645 L 1019,644 L 1019,642 L 1021,640 L 1023,640 L 1023,636 L 1022,635 L 1023,634 L 1023,633 L 1022,632 L 1023,631 L 1023,627 L 1022,626 L 1023,625 L 1023,624 L 1021,626 L 1019,624 L 1020,623 L 1019,624 L 1018,623 L 1018,621 L 1019,620 L 1020,620 L 1021,619 L 1020,618 L 1019,619 L 1018,618 L 1018,617 L 1019,616 L 1018,616 L 1016,614 L 1015,614 L 1014,613 L 1014,612 L 1015,611 L 1016,611 L 1018,613 L 1019,613 L 1020,614 L 1021,614 L 1022,613 L 1023,614 L 1023,610 L 1022,609 L 1023,608 L 1023,606 L 1021,606 L 1020,605 L 1022,603 L 1023,603 L 1023,599 L 1022,598 L 1022,597 L 1023,596 L 1023,592 L 1022,593 L 1022,598 L 1023,599 L 1023,602 L 1022,603 L 1021,602 L 1021,600 L 1020,599 L 1020,597 L 1019,596 L 1019,594 L 1020,593 L 1020,592 L 1021,591 L 1021,590 L 1022,589 L 1022,588 L 1023,587 L 1023,583 L 1022,584 L 1021,583 L 1021,582 L 1022,581 L 1023,581 L 1023,579 L 1022,578 L 1023,577 L 1023,575 L 1022,576 L 1021,575 L 1021,574 L 1022,573 L 1023,573 L 1021,571 L 1021,570 L 1022,569 L 1023,570 L 1022,569 L 1022,568 L 1023,567 L 1023,561 L 1022,562 L 1021,561 L 1021,560 L 1022,559 L 1023,559 L 1023,555 L 1022,554 L 1023,553 L 1023,552 L 1021,554 L 1018,554 L 1017,553 L 1018,552 L 1020,552 L 1020,551 L 1022,549 L 1023,550 L 1023,536 L 1019,532 L 1021,530 L 1023,532 L 1023,528 L 1022,528 L 1021,527 L 1021,525 L 1022,524 L 1023,525 L 1023,514 L 1021,514 L 1020,513 L 1021,512 L 1019,512 L 1018,511 L 1020,509 L 1021,510 L 1022,510 L 1023,509 L 1023,495 L 1022,495 L 1021,494 L 1021,493 L 1019,493 L 1020,494 L 1020,496 L 1021,497 L 1020,498 L 1019,498 L 1018,497 L 1017,498 L 1016,498 L 1016,499 L 1015,500 L 1013,500 L 1012,499 L 1013,498 L 1012,498 L 1011,497 L 1012,496 L 1011,495 L 1013,493 L 1015,495 L 1015,496 L 1016,495 L 1016,494 L 1017,493 L 1017,492 L 1016,491 L 1018,489 L 1019,490 L 1019,491 L 1022,491 L 1023,492 L 1023,493 L 1023,489 L 1023,490 L 1022,491 L 1021,490 L 1021,489 L 1020,490 L 1018,488 L 1017,488 L 1016,487 L 1016,486 L 1013,486 L 1012,485 L 1012,484 L 1010,484 L 1009,483 L 1010,482 L 1014,482 L 1016,484 L 1017,484 L 1018,485 L 1018,486 L 1019,486 L 1020,487 L 1020,486 L 1023,483 L 1023,482 L 1022,482 L 1021,483 L 1021,484 L 1020,485 L 1019,485 L 1018,484 L 1018,483 L 1020,481 L 1020,480 L 1021,479 L 1022,480 L 1023,480 L 1021,478 L 1022,477 L 1021,477 L 1020,476 L 1019,476 L 1017,478 L 1016,478 L 1015,479 L 1013,477 L 1014,476 L 1016,476 L 1016,475 L 1018,473 L 1019,473 L 1020,474 L 1021,474 L 1020,474 L 1019,473 L 1019,472 L 1018,472 L 1017,471 L 1017,470 L 1016,469 L 1016,471 L 1015,472 L 1014,471 L 1014,468 L 1015,467 L 1016,467 L 1017,466 L 1018,467 L 1018,468 L 1019,468 L 1020,469 L 1019,470 L 1020,470 L 1021,471 L 1021,470 L 1022,469 L 1023,469 L 1022,469 L 1021,468 L 1021,466 L 1022,465 L 1022,464 L 1023,463 L 1023,459 L 1022,459 L 1021,458 L 1021,456 L 1022,455 L 1023,455 L 1023,450 L 1021,448 L 1021,447 L 1020,447 L 1019,446 L 1020,445 L 1020,444 L 1021,443 L 1022,444 L 1022,445 L 1023,445 L 1023,440 L 1022,441 L 1019,441 L 1018,440 L 1018,439 L 1019,438 L 1020,438 L 1021,439 L 1022,438 L 1023,438 L 1023,434 L 1022,433 L 1023,432 L 1020,432 L 1019,431 L 1020,430 L 1020,428 L 1019,427 L 1020,426 L 1022,426 L 1023,427 L 1022,428 L 1022,429 L 1023,429 L 1023,425 L 1021,425 L 1020,424 L 1020,423 L 1021,422 L 1022,422 L 1023,423 L 1021,421 L 1021,420 L 1020,419 L 1021,418 L 1021,417 L 1022,416 L 1023,416 L 1022,416 L 1021,417 L 1019,415 L 1020,414 L 1023,414 L 1022,413 L 1022,411 L 1023,410 L 1023,409 L 1022,408 L 1022,407 L 1023,406 L 1023,405 L 1022,404 L 1023,403 L 1022,402 L 1023,401 L 1023,399 L 1021,399 L 1020,400 L 1020,401 L 1019,402 L 1019,403 L 1016,406 L 1016,407 L 1015,408 L 1016,409 L 1014,411 L 1013,410 L 1013,408 L 1012,407 L 1012,406 L 1014,404 L 1014,403 L 1015,402 L 1017,402 L 1017,399 L 1019,397 L 1019,396 L 1020,395 L 1017,392 L 1017,391 L 1018,390 L 1020,392 L 1021,392 L 1023,394 L 1023,393 L 1022,392 L 1020,392 L 1018,390 L 1018,387 L 1019,386 L 1020,386 L 1021,387 L 1021,389 L 1021,388 L 1022,387 L 1023,388 L 1023,385 L 1022,385 L 1021,384 L 1022,383 L 1021,384 L 1020,384 L 1019,383 L 1019,381 L 1020,380 L 1021,380 L 1022,381 L 1023,380 L 1023,375 L 1022,376 L 1021,375 L 1021,372 L 1020,371 L 1020,367 L 1019,368 L 1015,368 L 1014,369 L 1012,367 L 1013,366 L 1013,365 L 1014,364 L 1015,364 L 1017,366 L 1017,364 L 1016,363 L 1017,362 L 1019,362 L 1020,363 L 1020,364 L 1020,363 L 1021,362 L 1022,362 L 1023,363 L 1023,364 L 1022,365 L 1022,367 L 1023,368 L 1022,367 L 1022,365 L 1023,364 L 1023,361 L 1022,361 L 1021,360 L 1020,360 L 1018,358 L 1019,357 L 1018,356 L 1015,356 L 1014,355 L 1015,354 L 1017,354 L 1018,353 L 1019,353 L 1020,354 L 1020,355 L 1022,357 L 1023,356 L 1021,356 L 1020,355 L 1020,354 L 1019,353 L 1018,353 L 1017,352 L 1018,351 L 1019,351 L 1019,350 L 1022,347 L 1023,348 L 1023,345 L 1022,344 L 1023,343 L 1023,341 L 1022,340 L 1021,340 L 1020,339 L 1020,338 L 1021,337 L 1023,337 L 1023,336 L 1022,336 L 1021,335 L 1022,334 L 1023,334 L 1023,332 L 1022,331 L 1023,330 L 1021,332 L 1022,333 L 1021,334 L 1019,334 L 1020,334 L 1021,335 L 1020,336 L 1016,336 L 1015,335 L 1015,334 L 1014,334 L 1013,333 L 1013,332 L 1012,332 L 1011,331 L 1013,329 L 1014,329 L 1015,330 L 1015,329 L 1016,328 L 1017,329 L 1017,331 L 1016,332 L 1017,332 L 1019,330 L 1020,330 L 1020,329 L 1019,328 L 1020,327 L 1021,327 L 1020,326 L 1021,325 L 1021,323 L 1022,322 L 1020,322 L 1018,320 L 1019,319 L 1023,319 L 1023,314 L 1022,313 L 1023,312 L 1022,313 L 1020,313 L 1019,312 L 1020,311 L 1021,311 L 1020,311 L 1018,309 L 1018,307 L 1019,306 L 1020,307 L 1020,308 L 1021,308 L 1023,310 L 1023,307 L 1022,306 L 1022,305 L 1023,304 L 1023,303 L 1022,304 L 1017,304 L 1017,305 L 1016,306 L 1015,305 L 1015,303 L 1013,303 L 1012,304 L 1009,304 L 1008,303 L 1009,302 L 1011,302 L 1012,301 L 1016,301 L 1017,302 L 1018,301 L 1020,301 L 1021,302 L 1021,300 L 1022,299 L 1023,300 L 1023,298 L 1021,296 L 1019,296 L 1018,295 L 1018,294 L 1017,293 L 1017,292 L 1016,291 L 1017,290 L 1018,290 L 1019,291 L 1019,292 L 1020,292 L 1021,293 L 1021,294 L 1022,294 L 1023,295 L 1022,294 L 1022,293 L 1023,292 L 1023,290 L 1022,289 L 1023,288 L 1023,286 L 1022,286 L 1022,287 L 1021,288 L 1020,288 L 1019,287 L 1019,286 L 1018,285 L 1019,284 L 1020,284 L 1020,283 L 1021,282 L 1022,282 L 1023,281 L 1023,279 L 1022,280 L 1021,279 L 1019,279 L 1018,278 L 1018,275 L 1019,274 L 1020,274 L 1021,273 L 1023,275 L 1022,276 L 1023,276 L 1023,275 L 1022,274 L 1023,273 L 1023,272 L 1023,273 L 1022,274 L 1021,273 L 1020,273 L 1019,272 L 1019,271 L 1020,270 L 1021,271 L 1022,270 L 1022,268 L 1023,267 L 1023,256 L 1023,257 L 1021,259 L 1020,258 L 1019,258 L 1018,257 L 1019,256 L 1018,255 L 1021,252 L 1023,252 L 1023,251 L 1022,252 L 1021,251 L 1021,250 L 1023,248 L 1023,238 L 1023,239 L 1021,241 L 1019,239 L 1020,238 L 1020,237 L 1021,236 L 1022,236 L 1023,235 L 1023,232 L 1022,233 L 1018,233 L 1017,232 L 1016,232 L 1015,231 L 1017,229 L 1018,229 L 1019,228 L 1019,227 L 1020,226 L 1020,225 L 1019,224 L 1019,221 L 1020,220 L 1023,220 L 1023,217 L 1022,218 L 1022,219 L 1021,220 L 1020,220 L 1018,222 L 1017,221 L 1017,219 L 1018,218 L 1019,218 L 1019,217 L 1018,217 L 1017,216 L 1017,215 L 1018,214 L 1018,213 L 1019,212 L 1020,212 L 1021,213 L 1021,215 L 1023,215 L 1023,214 L 1022,213 L 1021,213 L 1020,212 L 1021,211 L 1023,211 L 1023,198 L 1022,197 L 1022,196 L 1023,195 L 1023,194 L 1022,193 L 1023,192 L 1022,193 L 1023,194 L 1022,195 L 1022,197 L 1023,198 L 1023,199 L 1022,200 L 1021,200 L 1019,198 L 1020,197 L 1019,197 L 1018,196 L 1018,194 L 1021,191 L 1021,190 L 1022,189 L 1023,189 L 1023,188 L 1022,187 L 1022,186 L 1023,185 L 1023,178 L 1021,176 L 1022,175 L 1022,174 L 1023,173 L 1023,172 L 1022,171 L 1023,170 L 1022,170 L 1022,171 L 1021,172 L 1020,171 L 1019,171 L 1018,170 L 1018,169 L 1019,168 L 1022,168 L 1021,167 L 1020,168 L 1018,168 L 1017,169 L 1016,168 L 1016,167 L 1017,166 L 1018,166 L 1018,164 L 1019,163 L 1020,164 L 1021,164 L 1022,163 L 1023,163 L 1023,162 L 1022,162 L 1021,161 L 1023,159 L 1023,157 L 1023,159 L 1022,160 L 1021,160 L 1019,158 L 1020,157 L 1020,156 L 1021,155 L 1021,154 L 1020,153 L 1020,151 L 1019,151 L 1019,152 L 1018,153 L 1014,153 L 1014,154 L 1013,155 L 1012,154 L 1012,153 L 1011,153 L 1009,151 L 1011,149 L 1012,150 L 1012,151 L 1015,151 L 1016,150 L 1017,151 L 1016,150 L 1017,149 L 1016,149 L 1015,148 L 1018,145 L 1019,145 L 1020,146 L 1020,148 L 1021,148 L 1023,150 L 1023,146 L 1022,147 L 1021,147 L 1019,145 L 1021,143 L 1020,143 L 1019,144 L 1018,143 L 1018,142 L 1017,141 L 1017,139 L 1018,138 L 1019,138 L 1020,139 L 1019,140 L 1021,140 L 1023,142 L 1023,135 L 1022,134 L 1023,133 L 1023,127 L 1022,126 L 1023,125 L 1022,124 L 1023,123 L 1023,122 L 1022,121 L 1022,120 L 1023,119 L 1021,119 L 1019,117 L 1020,116 L 1021,116 L 1021,115 L 1022,114 L 1023,115 L 1023,117 L 1023,109 L 1022,108 L 1023,107 L 1023,104 L 1022,104 L 1020,106 L 1019,106 L 1017,104 L 1015,104 L 1014,103 L 1013,103 L 1012,102 L 1012,101 L 1013,100 L 1014,100 L 1014,98 L 1015,97 L 1016,98 L 1015,97 L 1014,97 L 1012,95 L 1012,94 L 1013,93 L 1015,95 L 1016,94 L 1017,95 L 1017,96 L 1018,96 L 1019,97 L 1018,98 L 1018,99 L 1016,101 L 1017,101 L 1018,100 L 1019,100 L 1020,101 L 1019,102 L 1019,103 L 1020,103 L 1021,102 L 1023,102 L 1023,100 L 1022,99 L 1022,98 L 1020,98 L 1019,97 L 1019,96 L 1018,95 L 1019,94 L 1021,94 L 1020,93 L 1022,91 L 1023,91 L 1023,89 L 1022,90 L 1021,89 L 1021,88 L 1022,87 L 1023,87 L 1023,85 L 1022,84 L 1023,83 L 1023,81 L 1021,81 L 1019,79 L 1019,78 L 1020,77 L 1020,75 L 1022,73 L 1023,73 L 1023,70 L 1022,71 L 1023,72 L 1022,73 L 1021,73 L 1019,71 L 1019,70 L 1020,69 L 1020,68 L 1019,67 L 1021,65 L 1020,65 L 1020,66 L 1018,68 L 1017,67 L 1017,66 L 1018,65 L 1018,64 L 1019,63 L 1020,63 L 1021,62 L 1023,64 L 1023,67 L 1023,62 L 1022,61 L 1023,60 L 1023,54 L 1022,55 L 1021,55 L 1020,54 L 1021,53 L 1021,52 L 1020,51 L 1020,50 L 1019,49 L 1019,48 L 1020,47 L 1023,47 L 1023,44 L 1022,43 L 1021,43 L 1020,42 L 1021,41 L 1021,40 L 1022,39 L 1023,40 L 1023,39 L 1022,39 L 1021,40 L 1020,39 L 1020,38 L 1019,39 L 1018,38 L 1018,36 L 1019,35 L 1020,35 L 1021,36 L 1023,34 L 1023,29 L 1022,28 L 1023,27 L 1023,23 L 1023,24 L 1022,25 L 1021,25 L 1020,24 L 1020,23 L 1022,21 L 1022,17 L 1023,16 L 1023,14 L 1023,15 L 1022,16 L 1017,16 L 1018,17 L 1017,18 L 1017,19 L 1016,20 L 1015,19 L 1015,14 L 1016,13 L 1017,14 L 1019,14 L 1020,13 L 1020,12 L 1021,11 L 1023,11 L 1023,9 L 1022,9 L 1021,8 L 1022,7 L 1023,7 L 1023,4 L 1022,4 L 1021,3 L 1022,2 L 1023,2 L 1022,1 L 1022,0 L 1014,0 L 1015,0 L 1016,1 L 1016,2 L 1015,3 L 1014,3 L 1013,2 L 1012,2 L 1011,1 L 1012,0 L 1011,1 L 1010,1 L 1009,0 L 1008,0 L 1007,1 L 1006,1 L 1006,2 L 1005,3 L 1003,1 L 1003,0 L 1001,0 L 1001,1 L 1000,2 L 998,0 L 996,2 L 995,1 L 994,1 L 993,0 L 991,0 L 993,0 L 994,1 L 993,2 L 992,2 L 991,3 L 990,2 L 989,2 L 988,1 L 989,0 L 988,0 L 988,2 L 989,3 L 988,4 L 987,4 L 986,3 L 986,2 L 984,0 L 983,1 L 982,1 L 981,0 L 977,0 L 977,1 L 975,3 L 973,3 L 972,2 L 973,1 L 972,0 L 971,0 L 970,1 L 969,0 L 965,0 L 966,1 L 967,1 L 968,2 L 968,3 L 969,3 L 970,2 L 971,3 L 971,4 L 972,3 L 974,3 L 975,4 L 975,5 L 975,4 L 979,0 L 980,0 L 982,2 L 982,3 L 981,4 L 980,3 L 979,4 L 979,5 L 977,7 L 974,7 L 977,7 L 978,8 L 980,8 L 981,9 L 980,10 L 979,10 L 978,11 L 977,11 L 976,10 L 973,10 L 972,9 L 972,6 L 969,6 L 968,5 L 967,5 L 966,6 L 965,5 L 965,3 L 964,4 L 963,4 L 962,3 L 963,2 L 963,0 L 952,0 L 951,1 L 950,0 L 948,0 L 947,1 L 944,1 L 943,0 L 938,0 L 938,2 L 937,3 L 936,2 L 935,2 L 934,1 L 934,0 L 927,0 L 926,1 L 925,0 L 921,0 L 920,1 L 919,0 L 912,0 L 912,2 L 913,3 L 912,4 L 913,5 L 912,6 L 911,6 L 910,5 L 907,5 L 905,3 L 907,1 L 909,3 L 910,3 L 910,2 L 909,1 L 908,2 L 907,1 L 907,0 L 904,0 L 905,1 L 904,2 L 904,3 L 902,5 L 900,3 L 900,2 L 901,1 L 900,1 L 899,0 L 897,0 L 895,2 L 893,0 L 895,2 L 893,4 L 892,4 L 890,2 L 891,1 L 891,0 L 887,0 L 885,2 L 885,3 L 884,4 L 883,4 L 882,3 L 882,2 L 884,0 L 882,0 L 883,1 L 882,2 L 881,2 L 880,1 L 880,0 L 878,0 L 877,1 L 878,2 L 876,4 L 875,4 L 874,3 L 875,2 L 875,1 L 874,1 L 873,0 L 871,0 L 872,1 L 871,2 L 870,2 L 869,1 L 869,0 L 865,0 L 866,1 L 865,2 L 864,2 L 863,3 L 862,2 L 862,1 L 863,0 L 862,1 L 861,1 L 860,0 L 858,0 L 859,1 L 858,2 L 857,2 L 856,1 L 856,0 L 853,0 L 853,1 L 852,2 L 851,2 L 850,1 L 851,0 L 846,0 L 847,0 L 848,1 L 848,2 L 847,3 L 845,3 L 844,2 L 844,1 L 843,0 L 843,3 L 842,4 L 842,5 L 841,6 L 842,7 L 841,8 L 840,8 L 839,7 L 839,4 L 840,3 L 840,1 L 841,0 L 838,0 L 837,1 L 836,0 L 824,0 L 824,2 L 823,3 L 822,2 L 820,2 L 820,3 L 819,4 L 817,4 L 816,3 L 816,1 L 817,0 L 815,0 L 815,1 L 814,2 L 815,3 L 812,6 L 811,6 L 810,5 L 809,5 L 808,6 L 807,6 L 806,5 L 807,4 L 807,3 L 808,2 L 810,2 L 811,1 L 812,1 L 813,0 L 809,0 L 808,1 L 807,0 L 805,0 L 805,1 L 804,2 L 803,1 L 803,0 L 799,0 L 799,2 L 798,3 L 797,3 L 795,1 L 796,0 L 790,0 L 788,2 L 787,1 L 786,2 L 785,1 L 785,0 L 785,1 L 786,2 L 785,3 L 784,3 L 783,2 L 783,3 L 782,4 L 781,4 L 780,3 L 779,4 L 778,4 L 778,6 L 777,7 L 776,6 L 776,5 L 775,5 L 774,4 L 775,3 L 775,2 L 774,2 L 773,1 L 772,2 L 771,1 L 771,0 L 768,0 L 768,1 L 767,2 L 766,2 L 765,1 L 766,0 L 763,0 L 762,1 L 761,1 L 760,0 L 759,0 L 760,0 L 761,1 L 759,3 L 758,2 L 757,3 L 756,3 L 755,2 L 755,3 L 754,4 L 751,1 L 752,0 L 755,0 L 751,0 L 750,1 L 749,0 L 744,0 L 747,3 L 747,4 L 746,5 L 745,5 L 744,6 L 743,5 L 742,5 L 741,4 L 742,3 L 742,2 L 741,2 L 739,0 L 738,0 L 736,2 L 735,1 L 735,0 L 721,0 L 722,1 L 722,2 L 724,2 L 726,0 L 727,0 L 728,1 L 725,4 L 721,4 L 720,3 L 719,3 L 720,4 L 719,5 L 718,5 L 717,4 L 716,4 L 715,3 L 717,1 L 718,1 L 718,0 L 711,0 L 710,1 L 709,1 L 709,2 L 710,3 L 709,4 L 708,4 L 707,3 L 707,0 L 703,0 L 702,1 L 701,1 L 700,0 L 696,0 L 695,1 L 694,0 L 688,0 L 689,1 L 688,2 L 686,2 L 685,1 L 685,0 L 681,0 L 681,1 L 680,2 L 678,0 L 668,0 L 669,1 L 669,3 L 668,4 L 667,3 L 665,3 L 664,2 L 664,1 L 665,0 L 640,0 L 640,2 L 639,3 L 638,3 L 637,2 L 637,0 L 636,0 L 636,2 L 637,3 L 636,4 L 634,4 L 633,3 L 634,2 L 634,1 L 633,2 L 633,3 L 632,4 L 631,3 L 631,1 L 630,0 L 630,2 L 629,3 L 631,5 L 630,6 L 628,6 L 627,5 L 627,3 L 626,2 L 626,0 L 624,2 L 623,2 L 622,1 L 622,0 L 622,1 L 621,2 L 619,0 L 616,0 L 615,1 L 614,0 L 612,0 L 611,1 L 610,0 L 594,0 L 592,2 L 591,1 L 591,3 L 592,4 L 591,5 L 590,5 L 588,3 L 587,3 L 586,2 L 587,1 L 588,1 L 587,0 L 585,0 L 584,1 L 583,0 L 579,0 L 577,2 L 576,2 L 575,1 L 575,0 L 568,0 L 567,1 L 566,1 L 566,2 L 565,3 L 562,0 L 553,0 L 554,1 L 554,2 L 551,5 L 552,6 L 552,7 L 551,8 L 550,8 L 549,7 L 549,5 L 548,4 L 549,3 L 550,3 L 550,2 L 551,1 L 551,0 L 549,0 L 549,1 L 548,2 L 547,2 L 546,1 L 547,0 L 544,0 L 544,3 L 545,3 L 546,4 L 545,5 L 546,6 L 546,8 L 548,10 L 548,11 L 546,13 L 544,13 L 543,12 L 543,11 L 542,10 L 541,11 L 539,9 L 538,9 L 538,10 L 537,11 L 536,11 L 535,10 L 535,9 L 538,6 L 539,6 L 539,5 L 540,4 L 541,5 L 541,6 L 542,6 L 543,7 L 543,8 L 544,8 L 543,7 L 543,5 L 542,6 L 541,5 L 541,4 L 539,2 L 540,3 L 540,4 L 539,5 L 538,5 L 537,4 L 537,2 L 536,2 L 535,1 L 535,0 L 533,0 L 531,2 L 531,3 L 530,4 L 530,5 L 529,6 L 528,6 L 527,5 L 527,4 L 527,5 L 528,6 L 528,7 L 527,8 L 526,8 L 525,9 L 524,8 L 524,6 L 525,5 L 525,3 L 527,1 L 528,2 L 528,1 L 529,0 L 526,0 L 525,1 L 524,0 L 523,0 L 522,1 L 521,0 L 519,0 L 520,1 L 518,3 L 517,2 L 517,0 L 510,0 L 509,1 L 508,0 L 507,1 L 503,1 L 502,0 L 504,2 L 503,3 L 502,3 L 502,4 L 501,5 L 500,5 L 499,4 L 500,3 L 499,2 L 500,1 L 500,0 L 484,0 L 482,2 L 481,2 L 482,3 L 481,4 L 480,4 L 481,4 L 482,5 L 483,5 L 484,6 L 482,8 L 482,9 L 481,10 L 480,9 L 480,7 L 478,5 L 478,3 L 479,2 L 478,1 L 479,0 L 480,0 L 476,0 L 476,1 L 475,2 L 474,1 L 473,1 L 472,0 L 471,0 L 470,1 L 469,0 L 462,0 L 461,1 L 460,0 L 456,0 L 455,1 L 450,1 L 449,0 L 447,0 L 446,1 L 445,0 L 444,1 L 445,1 L 446,2 L 447,1 L 448,1 L 449,2 L 448,3 L 448,4 L 447,5 L 446,4 L 443,4 L 442,3 L 441,3 L 440,2 L 441,1 L 442,1 L 442,0 L 437,0 L 437,1 L 436,2 L 435,2 L 434,1 L 434,0 L 424,0 L 425,0 L 426,1 L 425,2 L 424,2 L 423,3 L 421,1 L 422,0 L 421,1 L 420,0 L 419,0 L 418,1 L 419,2 L 418,3 L 416,3 L 415,2 L 415,0 L 412,0 L 412,1 L 411,2 L 410,1 L 410,0 L 409,0 L 409,1 L 408,2 L 407,1 L 407,0 L 399,0 L 398,1 L 397,1 L 396,2 L 395,1 L 394,1 L 393,2 L 396,2 L 397,1 L 398,2 L 399,1 L 400,2 L 400,4 L 399,5 L 398,5 L 397,4 L 398,5 L 397,6 L 396,6 L 395,5 L 395,4 L 394,5 L 393,4 L 392,5 L 391,4 L 390,4 L 389,3 L 390,2 L 389,1 L 389,0 L 388,0 L 386,2 L 385,1 L 385,0 L 385,1 L 386,2 L 385,3 L 384,3 L 383,2 L 382,2 L 381,3 L 380,2 L 380,1 L 381,0 L 383,0 L 377,0 L 378,1 L 378,2 L 377,3 L 376,3 L 375,2 L 375,0 L 372,0 L 372,1 L 371,2 L 370,1 L 369,1 L 368,0 L 366,0 L 365,1 L 364,1 L 363,0 L 360,0 L 359,1 L 358,1 L 357,0 L 355,0 L 354,1 L 353,1 L 352,0 L 351,0 L 352,1 L 352,2 L 351,3 L 350,3 L 349,2 L 349,0 L 348,0 L 347,1 L 346,1 L 345,2 L 344,2 L 343,1 L 343,0 L 342,1 L 341,0 L 337,0 L 337,1 L 336,2 L 334,2 L 333,1 L 334,0 L 335,0 L 334,0 L 333,1 L 332,0 L 331,1 L 330,0 L 331,1 L 330,2 L 329,2 L 329,3 L 328,4 L 327,3 L 327,2 L 326,1 L 327,0 L 326,1 L 325,0 L 322,0 L 321,1 L 320,0 L 312,0 L 311,1 L 310,0 L 309,0 L 309,1 L 308,2 L 307,1 L 307,0 L 303,0 L 302,1 L 301,0 L 292,0 L 291,1 L 289,1 L 290,2 L 289,3 L 288,3 L 287,4 L 286,4 L 285,3 L 286,2 L 286,0 L 282,0 L 280,2 L 279,1 L 279,0 L 276,0 L 273,3 L 274,4 L 273,5 L 272,5 L 271,4 L 271,3 L 270,4 L 268,2 L 270,0 L 271,1 L 272,0 L 273,0 L 268,0 L 267,1 L 266,0 L 265,1 L 264,0 L 263,1 L 262,0 L 256,0 L 255,1 L 254,1 L 253,0 L 248,0 L 248,1 L 247,2 L 248,3 L 247,4 L 247,5 L 248,6 L 247,7 L 246,7 L 247,8 L 246,9 L 246,10 L 245,11 L 246,12 L 245,13 L 243,13 L 242,12 L 241,13 L 240,13 L 239,12 L 239,11 L 241,9 L 242,9 L 243,10 L 243,8 L 244,7 L 243,6 L 244,5 L 244,1 L 245,0 L 246,0 L 239,0 L 238,1 L 237,0 L 236,0 L 234,2 L 233,1 L 233,0 L 232,0 L 232,1 L 231,2 L 229,0 L 228,0 L 228,4 L 227,5 L 226,4 L 226,2 L 225,1 L 225,2 L 224,3 L 223,3 L 222,2 L 222,1 L 223,0 L 218,0 L 217,1 L 216,0 L 215,0 L 214,1 L 215,2 L 215,4 L 214,5 L 215,5 L 218,2 L 219,2 L 220,3 L 219,4 L 219,5 L 220,6 L 219,7 L 219,8 L 217,10 L 216,9 L 216,7 L 210,7 L 209,6 L 210,5 L 211,5 L 212,4 L 212,0 L 211,0 L 212,1 L 210,3 L 209,3 L 208,2 L 208,0 L 208,2 L 209,3 L 209,4 L 208,5 L 207,4 L 205,4 L 205,5 L 204,6 L 202,6 L 201,5 L 202,4 L 202,3 L 203,2 L 206,2 L 204,0 L 187,0 L 186,1 L 185,0 L 182,0 L 181,1 L 180,0 L 178,0 L 177,1 L 176,0 L 175,0 L 174,1 L 173,0 L 171,0 L 173,0 L 174,1 L 173,2 L 171,2 L 170,3 L 169,3 L 168,2 L 168,1 L 169,0 L 166,0 L 164,2 L 163,1 L 163,0 L 161,0 L 160,1 L 159,0 L 148,0 L 148,2 L 147,3 L 146,3 L 145,2 L 145,1 L 146,0 L 145,0 L 144,1 L 143,0 L 136,0 L 136,1 L 134,3 L 133,3 L 132,4 L 131,4 L 130,3 L 131,2 L 131,1 L 132,0 L 128,0 L 126,2 L 124,2 L 123,1 L 121,1 L 120,0 L 117,0 L 116,1 L 115,0 L 113,0 L 113,1 L 112,2 L 110,0 L 104,0 L 104,1 L 103,2 L 103,3 L 102,4 L 101,3 L 101,0 L 100,0 L 100,1 L 99,2 L 100,3 L 100,4 L 99,5 L 98,5 L 97,4 L 97,3 L 96,3 L 95,2 L 95,0 L 94,1 L 92,1 L 91,2 L 90,1 L 90,0 L 87,0 L 86,1 L 85,1 L 84,2 L 83,2 L 82,1 L 83,0 L 79,0 L 78,1 L 77,0 L 76,0 L 75,1 L 74,1 L 74,3 L 73,4 L 72,3 L 70,3 L 69,2 L 71,0 L 72,1 L 72,0 L 71,0 L 70,1 L 69,0 L 64,0 L 63,1 L 62,0 L 55,0 L 55,1 L 57,3 L 56,4 L 55,4 L 53,2 L 53,1 L 52,0 L 49,0 L 48,1 L 47,1 L 46,0 L 42,0 L 41,1 L 40,1 L 39,0 L 38,1 L 37,0 L 33,0 L 32,1 L 31,0 L 29,0 L 29,1 L 30,0 L 31,1 L 31,2 L 27,6 L 25,6 L 23,8 L 21,6 L 22,5 L 23,5 L 24,4 L 25,4 L 26,3 L 27,3 L 27,0 L 26,1 L 25,0 L 24,1 L 23,0 L 24,1 L 24,2 L 23,3 L 20,3 L 19,2 L 20,1 L 19,0 L 18,0 L 17,1 L 16,0 L 16,1 L 15,2 L 14,1 L 13,1 L 12,0 L 13,1 L 13,2 L 12,3 L 11,3 L 10,2 L 10,0 L 8,2 L 7,1 L 7,0 Z" fill="black" /></svg>